<?xml version="1.0" encoding="utf-8"?>
<!-- Generator: Adobe Illustrator 21.1.0, SVG Export Plug-In . SVG Version: 6.00 Build 0)  -->
<svg xmlns="http://www.w3.org/2000/svg" xmlns:xlink="http://www.w3.org/1999/xlink" version="1.1" id="Layer_1" x="0px" y="0px" viewBox="0 0 200 200" enable-background="new 0 0 200 200" xml:space="preserve">
<path d="M178.5,131.2V68.8c0-8.7-4.7-16.8-12.2-21.2l-54.1-31.2c-7.6-4.4-16.9-4.4-24.4,0L33.7,47.6C26.2,52,21.5,60.1,21.5,68.8  v62.4c0,8.7,4.7,16.8,12.2,21.2l54.1,31.2c7.6,4.4,16.9,4.4,24.4,0l54.1-31.2C173.8,148,178.5,139.9,178.5,131.2z" fill="#eedcbd"/>
<g transform="translate(30 30) scale(0.7)"><path d="m104.80857 34h-9.617136l-60.720001 132h10.371429l55.062856-121.439999 55.251422 121.439999h10.37143z" fill="#253444"/></g></svg>
